<?xml version="1.0" standalone="no"?>
<!DOCTYPE svg PUBLIC "-//W3C//DTD SVG 20010904//EN"
 "http://www.w3.org/TR/2001/REC-SVG-20010904/DTD/svg10.dtd">
<svg version="1.0" xmlns="http://www.w3.org/2000/svg"
 width="504.000000pt" height="504.000000pt" viewBox="0 0 504.000000 504.000000"
 preserveAspectRatio="xMidYMid meet">
<metadata>
Created by potrace 1.11, written by Peter Selinger 2001-2013
</metadata>
<g transform="translate(0.000000,504.000000) scale(0.100000,-0.100000)"
fill="#000000" stroke="none">
<path d="M3415 4460 c-95 -29 -242 -98 -335 -158 -73 -46 -131 -97 -212 -188
-80 -88 -190 -189 -270 -247 -70 -51 -73 -67 -14 -67 25 0 48 -4 51 -10 3 -5
-22 -36 -57 -69 -35 -32 -71 -73 -81 -90 -18 -30 -18 -31 1 -31 10 0 27 7 38
15 61 46 39 -15 -62 -171 -46 -72 -84 -136 -84 -144 0 -9 11 -11 40 -7 34 4
40 2 40 -13 0 -10 9 -22 20 -25 11 -4 20 -15 20 -26 0 -11 7 -22 15 -25 28
-11 15 -33 -63 -108 -144 -139 -238 -196 -349 -214 -146 -24 -168 -19 -295 66
-74 49 -94 51 -173 18 -51 -22 -40 -30 15 -11 64 23 89 19 153 -24 66 -44 62
-51 -33 -51 -53 0 -58 2 -53 20 3 11 1 20 -4 20 -9 0 -75 -159 -87 -210 -5
-21 -4 -20 8 5 8 17 26 56 40 89 l26 58 152 -5 c290 -9 389 22 568 176 194
168 171 158 227 101 l46 -48 50 54 c27 30 66 78 87 105 63 84 147 152 175 141
9 -3 25 -21 36 -41 23 -38 39 -44 59 -19 8 8 22 20 32 25 15 8 21 4 35 -26 9
-19 23 -35 30 -35 7 0 30 15 50 34 43 38 82 60 90 52 4 -3 6 -33 6 -67 l-1
-61 35 7 c34 6 35 6 29 -20 -5 -20 1 -38 24 -73 38 -57 39 -75 5 -62 -24 9
-25 8 -25 -24 0 -23 13 -53 39 -92 41 -62 101 -125 101 -107 0 5 -9 18 -21 29
-45 41 -98 174 -68 174 5 0 9 -7 9 -15 0 -29 60 -84 98 -91 65 -10 70 -14 85
-57 11 -33 19 -43 39 -45 22 -3 28 3 39 32 7 20 17 36 21 36 4 0 8 -34 8 -75
0 -41 4 -75 8 -75 16 0 88 57 105 84 14 21 23 25 42 20 23 -6 28 -1 50 47 43
91 115 162 84 83 -6 -16 -13 -38 -15 -49 -3 -11 -7 -24 -8 -30 -2 -5 -7 -29
-11 -52 -7 -41 -37 -96 -104 -188 -26 -36 -30 -49 -20 -55 7 -5 22 -4 32 2 30
16 42 -4 23 -40 -9 -17 -20 -34 -26 -37 -15 -9 -12 -48 6 -73 8 -12 13 -26 9
-31 -3 -5 -36 -13 -73 -16 -77 -8 -128 -39 -138 -83 -10 -42 -41 -107 -58
-121 -8 -7 -42 -15 -74 -18 -54 -5 -61 -3 -76 18 -9 13 -16 36 -16 51 0 37
-16 36 -35 -2 -18 -34 -48 -39 -95 -15 -26 14 -33 13 -70 -1 -26 -11 -45 -13
-51 -7 -8 8 -92 237 -125 343 -14 47 -19 112 -8 123 4 3 15 2 25 -4 22 -11 25
-3 6 15 -21 22 -51 34 -77 31 -28 -2 -30 -16 -4 -25 12 -5 22 -31 35 -96 10
-49 36 -145 58 -214 l39 -125 -42 -17 c-34 -13 -51 -14 -87 -6 -39 9 -55 7
-107 -11 -126 -43 -148 -28 -242 161 -77 156 -91 212 -84 333 3 48 1 65 -6 55
-5 -8 -10 -34 -10 -57 0 -23 -4 -45 -10 -48 -5 -3 -10 -1 -10 4 0 6 -5 11 -11
11 -14 0 -134 -253 -150 -315 -13 -50 -2 -133 27 -216 10 -31 10 -41 -2 -65
-8 -15 -24 -34 -34 -41 -11 -8 -20 -23 -20 -33 0 -12 -9 -21 -22 -24 -61 -13
-209 -29 -258 -28 -46 0 -51 -1 -30 -10 14 -5 50 -7 80 -4 180 19 190 19 210
1 14 -13 20 -31 20 -59 0 -34 -6 -47 -32 -70 -32 -28 -34 -28 -123 -23 l-90 6
108 -18 c65 -11 113 -24 118 -32 14 -20 2 -98 -21 -144 -11 -22 -20 -44 -20
-50 0 -6 -29 -46 -64 -88 -36 -43 -101 -126 -145 -185 -95 -127 -160 -213
-264 -345 -67 -86 -87 -117 -73 -117 1 0 25 28 52 62 26 35 82 105 123 157 41
51 84 106 95 122 97 131 187 229 211 229 9 0 20 11 25 24 11 29 23 38 44 30
13 -5 14 -10 4 -27 -17 -31 -18 -87 -1 -87 18 0 16 -17 -3 -28 -14 -8 -14 -10
2 -16 11 -4 20 -2 22 3 2 6 8 8 14 5 6 -4 30 -6 53 -6 40 1 44 -1 50 -28 3
-15 2 -46 -4 -67 -9 -36 -8 -96 4 -153 18 -84 18 -91 -1 -106 -17 -13 -17 -13
-1 -8 15 6 17 1 14 -30 -2 -20 0 -36 4 -36 14 0 10 -22 -8 -42 -14 -16 -15
-21 -3 -44 12 -21 12 -27 1 -34 -8 -4 -10 -13 -6 -20 24 -39 14 -61 -68 -139
-45 -43 -107 -100 -137 -126 -30 -26 -67 -58 -81 -70 -15 -13 -37 -26 -50 -30
-13 -4 -50 -29 -82 -54 -32 -25 -75 -59 -95 -74 -51 -39 -108 -86 -150 -124
-35 -31 -59 -45 -95 -57 -15 -5 -42 -51 -39 -67 1 -3 -11 -4 -26 -2 -15 1 -21
0 -14 -3 6 -3 10 -10 6 -15 -5 -9 74 -13 205 -10 l74 1 57 53 c31 28 80 66
109 82 29 17 58 35 64 40 7 6 28 18 47 27 74 37 123 74 126 95 2 9 10 20 18
25 9 5 16 16 16 23 0 8 9 24 21 36 39 39 10 31 -55 -15 -73 -52 -86 -46 -58
26 35 92 45 101 134 126 77 21 67 22 -37 6 l-40 -6 65 66 c36 37 120 105 187
152 67 46 141 105 165 130 24 26 84 77 133 114 109 83 325 286 364 344 65 95
94 243 72 368 -6 36 -27 108 -47 159 -20 52 -42 110 -49 129 -7 19 -19 36 -27
38 -8 1 -22 16 -32 32 -16 29 -16 30 1 31 34 1 -82 47 -137 54 -85 9 -100 14
-100 30 0 23 43 19 181 -17 103 -26 143 -31 234 -31 116 0 226 23 305 63 58
30 73 27 67 -12 -9 -53 -53 -359 -97 -678 -22 -162 -54 -359 -71 -438 -17 -79
-28 -149 -26 -155 6 -18 119 157 181 281 117 233 228 573 255 779 11 86 42
163 65 163 7 0 26 -18 41 -40 15 -22 32 -40 38 -40 18 0 87 78 87 98 0 24 16
37 25 22 12 -19 34 -10 50 20 20 39 30 38 57 -5 13 -19 29 -35 35 -35 18 0 78
94 104 163 12 31 25 57 30 57 11 0 45 -50 56 -84 13 -40 25 -42 46 -5 17 30
19 31 36 15 18 -16 21 -13 69 77 28 52 56 113 63 136 7 22 18 41 25 41 7 0 18
19 24 43 25 96 53 168 63 164 7 -2 26 -27 44 -56 17 -29 35 -53 39 -54 21 -6
37 87 41 249 8 262 -30 656 -79 819 -95 316 -392 581 -814 724 l-120 41 -250
-1 c-243 -1 -251 -2 -339 -29z m323 -1375 c14 -30 16 -91 3 -99 -10 -7 -33 19
-55 61 -24 47 -21 63 12 63 21 0 32 -7 40 -25z m42 -781 c0 -8 -4 -12 -10 -9
-5 3 -10 13 -10 21 0 8 5 12 10 9 6 -3 10 -13 10 -21z"/>
<path d="M1205 2960 c-16 -7 -17 -9 -3 -9 9 -1 20 4 23 9 7 11 7 11 -20 0z"/>
<path d="M1285 2950 c17 -4 41 -8 55 -8 l25 0 -25 8 c-14 4 -38 8 -55 8 l-30
0 30 -8z"/>
<path d="M1378 2933 c6 -2 18 -2 25 0 6 3 1 5 -13 5 -14 0 -19 -2 -12 -5z"/>
<path d="M1566 2923 c-25 -13 -37 -14 -83 -3 -67 15 -81 7 -17 -9 l47 -12 -7
-37 c-3 -20 -8 -50 -11 -67 -3 -16 5 -1 19 34 14 36 31 68 38 72 20 12 54 38
48 38 -3 0 -18 -7 -34 -16z"/>
<path d="M948 2850 c-20 -11 -40 -25 -44 -32 -6 -9 76 32 95 48 12 11 -19 1
-51 -16z"/>
<path d="M1481 2744 c0 -11 3 -14 6 -6 3 7 2 16 -1 19 -3 4 -6 -2 -5 -13z"/>
<path d="M759 2703 c-13 -16 -12 -17 4 -4 9 7 17 15 17 17 0 8 -8 3 -21 -13z"/>
<path d="M719 2663 c-32 -39 -44 -57 -32 -50 13 8 57 67 50 67 -2 0 -10 -8
-18 -17z"/>
<path d="M1621 2663 c-1 -6 -4 -20 -7 -30 -5 -17 -5 -17 6 0 6 10 9 23 6 30
-3 9 -5 9 -5 0z"/>
<path d="M1641 2520 c7 -14 44 -63 83 -110 40 -47 92 -112 118 -145 25 -33 63
-76 83 -95 37 -35 -89 128 -194 250 -31 36 -66 79 -79 95 -20 25 -21 26 -11 5z"/>
<path d="M1800 2485 c0 -2 47 -36 104 -75 77 -51 120 -88 162 -140 31 -38 58
-70 61 -70 5 0 -7 17 -67 94 -31 40 -77 80 -148 127 -99 67 -112 74 -112 64z"/>
<path d="M1570 2406 c0 -2 8 -10 18 -17 15 -13 16 -12 3 4 -13 16 -21 21 -21
13z"/>
<path d="M3366 2366 c3 -9 11 -16 16 -16 13 0 5 23 -10 28 -7 2 -10 -2 -6 -12z"/>
<path d="M1600 2366 c0 -2 8 -10 18 -17 15 -13 16 -12 3 4 -13 16 -21 21 -21
13z"/>
<path d="M1660 2270 c6 -11 13 -20 16 -20 2 0 0 9 -6 20 -6 11 -13 20 -16 20
-2 0 0 -9 6 -20z"/>
<path d="M2150 2172 c0 -5 7 -15 15 -22 8 -7 15 -8 15 -2 0 5 -7 15 -15 22 -8
7 -15 8 -15 2z"/>
<path d="M1970 2122 c0 -12 19 -26 26 -19 2 2 -2 10 -11 17 -9 8 -15 8 -15 2z"/>
<path d="M3251 2076 c76 -41 167 -198 202 -351 4 -15 5 -13 6 7 3 70 -116 306
-172 342 -12 8 -35 17 -52 21 -25 5 -23 2 16 -19z"/>
<path d="M1968 1903 c7 -3 16 -2 19 1 4 3 -2 6 -13 5 -11 0 -14 -3 -6 -6z"/>
<path d="M192 1695 c-17 -37 -14 -45 4 -12 9 16 14 31 11 33 -2 2 -9 -7 -15
-21z"/>
<path d="M3456 1654 c-4 -14 -5 -28 -3 -31 3 -2 8 8 11 23 4 14 5 28 3 31 -3
2 -8 -8 -11 -23z"/>
<path d="M1543 1550 c0 -47 2 -66 4 -42 2 23 2 61 0 85 -2 23 -4 4 -4 -43z"/>
<path d="M3424 1544 c-4 -10 -13 -34 -20 -53 -25 -60 -14 -58 12 3 14 32 23
61 20 64 -3 2 -9 -4 -12 -14z"/>
<path d="M392 1540 c3 -8 18 -50 33 -93 15 -43 24 -81 21 -84 -3 -4 -54 -2
-112 4 l-105 11 -54 59 c-29 32 -56 55 -60 51 -4 -3 12 -25 34 -48 23 -23 41
-46 41 -50 0 -16 58 -30 158 -38 66 -6 108 -14 116 -23 7 -8 29 -57 49 -109
73 -188 148 -375 154 -380 10 -9 -8 41 -93 263 -46 120 -84 223 -84 230 0 12
83 55 151 79 59 20 23 16 -56 -7 -44 -13 -86 -25 -94 -27 -8 -2 -25 25 -48 77
-19 44 -39 85 -45 90 -8 7 -9 5 -6 -5z"/>
<path d="M103 1528 c-20 -26 -26 -41 -15 -34 12 7 36 46 29 46 -3 0 -9 -6 -14
-12z"/>
<path d="M1058 1503 c17 -2 47 -2 65 0 17 2 3 4 -33 4 -36 0 -50 -2 -32 -4z"/>
<path d="M908 1493 c7 -3 16 -2 19 1 4 3 -2 6 -13 5 -11 0 -14 -3 -6 -6z"/>
<path d="M1168 1493 c7 -3 16 -2 19 1 4 3 -2 6 -13 5 -11 0 -14 -3 -6 -6z"/>
<path d="M50 1480 c-35 -22 -41 -94 -41 -507 l0 -402 33 -53 c32 -52 33 -56
35 -173 1 -125 16 -194 62 -284 25 -48 6 -46 309 -42 l83 1 -7 38 c-4 20 -11
40 -17 43 -5 4 -7 16 -4 28 3 12 1 21 -5 21 -6 0 -8 6 -5 13 7 19 -12 107 -24
107 -5 0 -9 9 -9 19 0 11 -11 41 -25 67 -14 26 -25 54 -25 62 0 8 -16 48 -35
89 -19 40 -38 91 -41 113 -4 21 -15 47 -25 56 -11 9 -19 25 -19 36 0 10 -11
36 -25 58 -14 22 -25 44 -25 49 0 6 -14 33 -30 61 -64 109 -133 270 -161 375
-24 93 -27 115 -18 150 6 22 18 48 27 58 17 20 13 30 -8 17z"/>
<path d="M858 1483 c7 -3 16 -2 19 1 4 3 -2 6 -13 5 -11 0 -14 -3 -6 -6z"/>
<path d="M1220 1480 c8 -5 24 -10 34 -10 26 0 18 6 -19 14 -22 5 -26 4 -15 -4z"/>
<path d="M2327 1473 c-4 -3 -7 -11 -7 -17 0 -6 5 -5 12 2 6 6 9 14 7 17 -3 3
-9 2 -12 -2z"/>
<path d="M1288 1463 c7 -3 16 -2 19 1 4 3 -2 6 -13 5 -11 0 -14 -3 -6 -6z"/>
<path d="M1335 1447 c34 -22 77 -38 69 -26 -6 11 -65 39 -81 39 -4 0 1 -6 12
-13z"/>
<path d="M718 1443 c7 -3 16 -2 19 1 4 3 -2 6 -13 5 -11 0 -14 -3 -6 -6z"/>
<path d="M1471 1354 c31 -32 59 -66 62 -74 3 -8 6 -2 6 13 1 17 -3 26 -9 22
-6 -3 -13 1 -16 9 -3 8 -27 32 -52 52 l-47 37 56 -59z"/>
<path d="M2320 1400 c0 -5 5 -10 10 -10 6 0 10 5 10 10 0 6 -4 10 -10 10 -5 0
-10 -4 -10 -10z"/>
<path d="M3336 1326 c-34 -76 -42 -113 -10 -46 34 72 45 100 39 100 -3 0 -16
-24 -29 -54z"/>
<path d="M3251 1129 c-18 -39 -30 -73 -28 -75 2 -2 18 28 36 67 17 40 30 74
28 76 -2 2 -18 -29 -36 -68z"/>
<path d="M2163 1043 c-38 -59 -96 -153 -128 -208 -32 -55 -87 -146 -122 -203
-65 -104 -80 -149 -25 -73 63 86 356 580 350 587 -3 3 -37 -44 -75 -103z"/>
<path d="M1551 973 c-1 -7 6 -48 14 -90 8 -43 19 -132 25 -198 l9 -120 -4 135
c-3 87 -12 162 -24 210 -10 41 -19 69 -20 63z"/>
<path d="M3158 911 c-25 -58 -28 -61 -182 -162 -86 -56 -154 -104 -152 -106 2
-2 62 32 132 76 71 45 135 81 142 81 9 0 11 -7 6 -22 -14 -46 5 -10 45 86 23
55 40 101 38 103 -2 2 -15 -24 -29 -56z"/>
<path d="M3081 719 c-6 -18 -9 -34 -7 -36 2 -2 9 10 15 28 6 18 9 34 7 36 -2
2 -9 -10 -15 -28z"/>
<path d="M3056 655 c-3 -9 -6 -22 -5 -28 0 -7 5 -1 10 12 5 13 8 26 5 28 -2 2
-6 -3 -10 -12z"/>
<path d="M2780 630 c-8 -5 -10 -10 -5 -10 6 0 17 5 25 10 8 5 11 10 5 10 -5 0
-17 -5 -25 -10z"/>
<path d="M2582 583 c-35 -8 -61 -17 -59 -19 5 -6 147 26 147 32 0 6 -18 3 -88
-13z"/>
<path d="M1592 530 c0 -14 2 -19 5 -12 2 6 2 18 0 25 -3 6 -5 1 -5 -13z"/>
<path d="M1582 253 c-2 -210 0 -233 14 -233 14 0 15 6 9 37 -4 21 -10 126 -14
233 l-7 195 -2 -232z"/>
<path d="M2966 356 c-14 -58 -26 -113 -25 -123 0 -10 14 36 30 101 16 65 28
121 25 123 -2 2 -15 -44 -30 -101z"/>
<path d="M2857 385 c-20 -14 -40 -25 -45 -25 -5 0 -17 -9 -27 -20 -10 -11 -23
-20 -29 -20 -6 0 -29 -16 -51 -35 -22 -19 -46 -35 -53 -35 -7 0 -20 -7 -28
-15 -9 -8 -27 -15 -41 -15 -21 0 -23 -3 -14 -14 9 -11 8 -15 -4 -20 -9 -3 -13
-2 -10 4 3 6 -1 10 -9 10 -9 0 -16 -7 -16 -16 0 -10 -6 -14 -15 -10 -8 3 -15
0 -15 -6 0 -6 -3 -8 -7 -5 -3 4 -15 0 -25 -10 -10 -9 -21 -13 -24 -10 -4 3
-14 -3 -23 -14 -9 -11 -27 -21 -40 -22 -14 -1 -26 -9 -29 -19 -2 -10 -8 -18
-12 -18 -4 0 -20 -11 -36 -25 l-29 -25 54 0 c49 0 61 5 120 48 36 26 100 70
141 96 244 159 300 199 305 217 10 30 3 31 -38 4z"/>
<path d="M2915 125 c-3 -26 -4 -49 -2 -51 3 -3 8 16 12 41 3 26 4 49 2 51 -3
3 -8 -16 -12 -41z"/>
</g>
</svg>
